<?xml version="1.0" encoding="UTF-8"?> <!-- Generator: Adobe Illustrator 25.0.0, SVG Export Plug-In . SVG Version: 6.00 Build 0) --> <svg xmlns="http://www.w3.org/2000/svg" xmlns:xlink="http://www.w3.org/1999/xlink" version="1.1" id="Layer_1" x="0px" y="0px" viewBox="0 0 172.8 36.9" style="enable-background:new 0 0 172.8 36.9;" xml:space="preserve"> <style type="text/css"> .st0{fill:#DCCDD3;} </style> <path class="st0" d="M18.4,15.1h-6l2.9-7.9L18.4,15.1z M36.9,18.4c0,10.2-8.3,18.4-18.4,18.4C8.3,36.9,0,28.6,0,18.4 C0,8.3,8.3,0,18.4,0C28.6,0,36.9,8.3,36.9,18.4z M13,21.4L13,21.4c-1.3-0.1-1.9-0.2-2.2-0.6c-0.3-0.5,0-1.4,0.6-3.1l0.8-2.3h6.3 l1.2,3c0.1,0.2,0.2,0.4,0.2,0.6l1.5-1.3L16.2,4.6l0,0h-0.3L11,17.7c-1.1,3.1-1.4,3.6-3.5,3.7l0,0v0.3H13V21.4z M28.3,23.2h-9.1v-3.1 l-1.9,1.7v10.5h1.9v-7.3h9.1V23.2z M29.4,15.4h-4.9l-2,1.8h6.9V15.4z M60.7,23.4c0.7,1.8,1.3,2.5,2.8,2.6l0,0v0.3h-6.2v-0.3l0,0 c1.1-0.1,1.6-0.2,1.8-0.6c0.3-0.4,0-1-0.4-2.1l-1.1-2.7h-6l-0.7,1.8c-0.6,1.6-0.9,2.5-0.6,2.9c0.2,0.3,0.8,0.5,2,0.6l0,0v0.3h-5.2 v-0.3l0,0c2-0.1,2.2-0.6,3.3-3.5l4.5-12.1h0.3l0,0L60.7,23.4 M54.7,12.9l-2.8,7.5h5.7L54.7,12.9z M90.9,20c-0.2,3.9-0.4,6.1-4.2,6.1 h-2.5c-1.8,0-1.8-0.3-1.8-2.1v-5.6h1.8c3.1,0,3.2,0.7,3.4,3.3l0,0h0.3v-7h-0.3l0,0c-0.1,2.5-0.3,3.3-3.4,3.3h-1.8v-4.8 c0-1.8,0-2.1,1.8-2.1h3c1.2,0,2.1,0.4,2.6,1.3c0.5,0.8,0.8,2.1,0.9,4.1l0,0h0.3l-0.1-5.8H78.7V11l0,0c1.9,0,1.9,0.4,1.9,2.2v10.6 c0,1.8,0,2.2-1.9,2.2l0,0v0.3h12.4l0.1-6.4l0,0L90.9,20L90.9,20z M78.8,19c0-0.2,0.1-0.4,0.2-0.5c0.4-0.3,1.1-0.2,1.1-0.2l0,0V18 l0,0c0,0-0.8,0.1-1.1-0.2c-0.1-0.1-0.2-0.3-0.2-0.5h-0.1L78.8,19L78.8,19 M76.9,19.5c-0.2,3.7-0.6,6.5-4.5,6.5h-2 c-1.8,0-1.8-0.3-1.8-2.1V13.2c0-1.8,0-2.2,2.6-2.2l0,0v-0.3H65V11l0,0c1.9,0,1.9,0.4,1.9,2.2v10.6c0,1.8,0,2.2-1.9,2.2l0,0v0.3h12.2 l0.1-6.9L76.9,19.5L76.9,19.5z M127.1,11L127.1,11c2,0,2,0.4,2,2.2v10.6c0,1.8,0,2.2-2,2.2l0,0v0.3h5.8v-0.3l0,0c-2,0-2-0.4-2-2.2 V13.2c0-1.8,0-2.2,2-2.2l0,0v-0.3h-5.8V11z M105.6,23.4c0.7,1.8,1.3,2.5,2.8,2.6l0,0v0.3h-6.2v-0.3l0,0c1.1-0.1,1.6-0.2,1.8-0.6 c0.3-0.4,0-1-0.4-2.1l-1.1-2.7h-6l-0.7,1.8c-0.6,1.6-0.9,2.5-0.6,2.9c0.2,0.3,0.8,0.5,2,0.6l0,0v0.3h-5.2v-0.3l0,0 c2-0.1,2.2-0.6,3.3-3.5l4.5-12.1h0.3l0,0L105.6,23.4 M99.6,12.9l-2.8,7.5h5.7L99.6,12.9z M165.4,26.1v0.3h-6.2v-0.3l0,0 c1.1-0.1,1.6-0.2,1.8-0.6c0.3-0.4,0-1-0.4-2.1l-1.1-2.7h-6l-0.7,1.8c-0.6,1.6-0.9,2.5-0.6,2.9c0.2,0.3,0.8,0.5,2,0.6l0,0v0.3h-5.2 v-0.3l0,0c2-0.1,2.2-0.6,3.3-3.5l4.5-12.1h0.3l0,0l5.1,12.9C163.3,25.3,163.8,26,165.4,26.1L165.4,26.1z M156.6,12.9l-2.8,7.5h5.7 L156.6,12.9z M150.1,11v-0.3h-6.3V11l0,0c3.2,0,3.2,1.2,3.2,3.3v9l-8.4-12.6h-4.2V11l0,0c2.5,0,2.7,0.8,2.7,1.9v9.8 c0,2.1,0,3.3-2.7,3.4l0,0v0.3h6.3v-0.3l0,0c-3.2,0-3.2-1.2-3.2-3.4l0-10.4l9.4,14.1l0,0h0.3v-12C147.4,12.3,147.4,11.1,150.1,11 L150.1,11z M113.3,19c0-0.2,0.1-0.4,0.2-0.5c0.4-0.3,1.1-0.2,1.1-0.2l0,0V18l0,0c0,0-0.8,0.1-1.1-0.2c-0.1-0.1-0.2-0.3-0.2-0.5h-0.1 L113.3,19L113.3,19 M125.3,10.7h-12.1V11l0,0c1.9,0,1.9,0.4,1.9,2.2v10.6c0,1.8,0,2.2-1.9,2.2l0,0v0.3h6.3v-0.3l0,0 c-1.4,0-2-0.1-2.3-0.4c-0.3-0.3-0.3-0.9-0.3-1.8v-5.6h1.8c3.1,0,3.2,0.7,3.4,3.3l0,0h0.3v-7H122l0,0c-0.1,2.5-0.3,3.3-3.4,3.3h-1.8 v-4.8c0-1.8,0-2.1,1.8-2.1h3c2.4,0,3.3,1.4,3.4,5.5l0,0h0.3L125.3,10.7L125.3,10.7z M167.8,13.1h0.5v-2.4h0.9v-0.5H167v0.5h0.9V13.1 z M169.9,13.1h0.5v-2l0.9,1.4h0.1l0.9-1.4v2h0.5v-2.9h-0.6l-0.9,1.4l-0.9-1.4h-0.6V13.1z"></path> </svg> 