<?xml version="1.0" encoding="UTF-8"?> <!-- Generator: Adobe Illustrator 25.0.0, SVG Export Plug-In . SVG Version: 6.00 Build 0) --> <svg xmlns="http://www.w3.org/2000/svg" xmlns:xlink="http://www.w3.org/1999/xlink" version="1.1" id="Layer_1" x="0px" y="0px" viewBox="0 0 334.9 45.2" style="enable-background:new 0 0 334.9 45.2;" xml:space="preserve"> <style type="text/css"> .st0{fill:#DBCDD3;} </style> <path class="st0" d="M116.6,25.7h0.8v0.1l-0.3,17H84.4V42h0.1c5-0.1,5-1,5-5.8V8c0-4.9,0-5.7-5-5.8h-0.1V1.4h32.1l0.2,15.4h-0.8 v-0.1c-0.3-5.4-1-8.8-2.3-11c-1.4-2.3-3.6-3.4-6.8-3.4h-8c-4.7,0-4.7,0.7-4.7,5.6v12.7h4.7c8.1,0,8.5-1.9,8.9-8.7v-0.1h0.8v18.4 h-0.8v-0.1c-0.3-6.8-0.8-8.7-8.9-8.7h-4.7v14.9c0,4.8,0,5.6,4.7,5.6h6.7C115.4,41.9,116.2,36.1,116.6,25.7L116.6,25.7z"></path> <path class="st0" d="M84.6,23.3h-0.2v-4.5h0.2c0,0.5,0.2,1,0.5,1.3c1,0.9,3,0.6,3,0.6h0.1v0.8h-0.1c0,0-2-0.3-3,0.6 C84.7,22.3,84.6,22.7,84.6,23.3"></path> <path class="st0" d="M79.6,24.6h0.8l-0.2,18.3H48v-0.8h0.1c5-0.1,5-1,5-5.8V8c0-4.9,0-5.7-5-5.8H48V1.4h16.7v0.8h-0.1 c-6.9,0.1-6.9,1-6.9,5.8v28.3c0,4.8,0,5.6,4.7,5.6h5.3C78,41.9,79.2,34.4,79.6,24.6L79.6,24.6z"></path> <path class="st0" d="M212.5,1.4h15.4v0.8h-0.1c-5.3,0.1-5.3,1-5.3,5.8v28.2c0,4.9,0,5.7,5.3,5.8h0.1v0.8h-15.4V42h0.1 c5.3-0.1,5.3-1,5.3-5.8V8c0-4.9,0-5.7-5.3-5.8h-0.1V1.4z"></path> <path class="st0" d="M163.1,42c-4-0.3-5.4-2.1-7.4-7L142.1,0.8V0.7h-0.8l-11.9,31.9c-2.9,7.7-3.5,9-8.8,9.4h-0.1v0.8h13.9V42h-0.1 c-3.3-0.2-4.8-0.6-5.4-1.5c-0.8-1.3-0.1-3.5,1.5-7.8l1.8-4.8H148l2.8,7.2c1.1,2.7,1.6,4.4,1,5.4c-0.6,0.9-2.1,1.3-4.9,1.5h-0.1v0.8 h16.4V42H163.1z M132.5,27.1l7.4-19.9l7.8,19.9H132.5z"></path> <path class="st0" d="M297.7,42h-0.1v0.8H314l-0.2-0.7c-4.1-0.3-5.5-2.1-7.4-7L292.8,0.8V0.7H292l-11.9,31.9c-2.9,7.7-3.5,9-8.8,9.4 h-0.1v0.8h13.9V42H285c-3.3-0.2-4.8-0.6-5.4-1.5c-0.8-1.3-0.1-3.5,1.5-7.8l1.8-4.8h15.9l2.8,7.2c1,2.7,1.6,4.4,1,5.4 C302,41.4,300.5,41.8,297.7,42z M283.2,27.1l7.4-19.9l7.8,19.9H283.2z"></path> <path class="st0" d="M27.7,42h-0.1v0.8H44l-0.2-0.7c-4.1-0.3-5.5-2.1-7.4-7L22.8,0.8V0.7H22L10.1,32.6c-2.9,7.7-3.5,9-8.8,9.4H1.2 v0.8h13.9V42H15c-3.3-0.2-4.8-0.6-5.4-1.5c-0.8-1.3-0.1-3.5,1.5-7.8l1.8-4.8h15.9l2.8,7.2c1,2.7,1.6,4.4,1,5.4 C32,41.4,30.5,41.8,27.7,42z M13.2,27.1l7.4-19.9l7.8,19.9H13.2z"></path> <path class="st0" d="M273.4,2.2c-7.1,0.1-7.1,3.2-7.1,8.9v31.8h-0.9l0,0l-25-37.3l0.1,27.5c0,5.7,0,8.8,8.4,8.9h0.1v0.8h-16.6V42 h0.1c7.1-0.1,7.1-3.2,7.1-8.9V7.2c0-3-0.5-5-7.2-5.1h-0.1V1.4h11l22.1,33.4V11c0-5.6,0-8.7-8.4-8.8h-0.1V1.4h16.6v0.8H273.4z"></path> <path class="st0" d="M175.9,23.3h-0.2v-4.5h0.2c0,0.5,0.2,1,0.5,1.3c1,0.9,3,0.6,3,0.6h0.1v0.8h-0.1c0,0-2-0.3-3,0.6 C176.1,22.3,175.9,22.7,175.9,23.3"></path> <path class="st0" d="M207.8,1.5l0.2,15.4h-0.8v-0.1c-0.5-10.9-2.8-14.5-9.1-14.5h-8c-4.7,0-4.7,0.7-4.7,5.6v12.6h4.7 c8.1,0,8.5-1.9,8.9-8.6v-0.1h0.8v18.4H199v-0.1c-0.3-6.7-0.8-8.7-8.9-8.7h-4.7v14.8c0,2.4,0,3.8,0.8,4.7c0.8,0.8,2.4,1.1,6,1.2h0.1 v0.8h-16.7v-0.8h0.1c5-0.1,5-1,5-5.8V8c0-4.9,0-5.7-5-5.8h-0.1V1.4h32.1L207.8,1.5z"></path> <polygon class="st0" points="320.4,1.3 318.1,1.3 318.1,0 324.2,0 324.2,1.3 321.9,1.3 321.9,7.6 320.4,7.6 320.4,1.3 "></polygon> <polygon class="st0" points="325.8,0 327.4,0 329.7,3.6 332,0 333.5,0 333.5,7.6 332.1,7.6 332.1,2.2 329.8,5.8 329.7,5.8 327.4,2.2 327.4,7.6 326,7.6 326,0 "></polygon> </svg> 